<svg id="Layer_1" data-name="Layer 1" xmlns="http://www.w3.org/2000/svg" viewBox="0 0 572.68 387.91"><defs><style>.cls-1{fill:#4a90ac;}.cls-2{fill:#ffe045;fill-opacity:0.45;}.cls-3{fill:#ff907b;fill-opacity:0.63;}.cls-4{fill:#5920ac;fill-opacity:0.43;}</style></defs><title>workflow</title><rect class="cls-1" x="284.54" y="20.27" width="10" height="10"/><rect class="cls-1" x="314.43" y="20.27" width="10" height="10"/><rect class="cls-1" x="344.33" y="20.27" width="10" height="10"/><rect class="cls-2" x="296.74" y="95.97" width="45.39" height="45.39" transform="translate(9.65 260.63) rotate(-45)"/><path class="cls-3" d="M174.77,141.33a22.67,22.67,0,1,1,22.67-22.67A22.69,22.69,0,0,1,174.77,141.33Z"/><rect class="cls-4" x="296.77" y="235" width="45" height="45"/><path class="cls-1" d="M572.68,257.42l-25.91-15V252H497.06a32.31,32.31,0,0,0-27.28-26.87V151h28V86h-28V55.27A35.15,35.15,0,0,0,434.83,20H407.77V0h-175V20H205.08a35.33,35.33,0,0,0-35.31,35.27V86.38a32.76,32.76,0,0,0,5,65.12c16.31,0,29.87-12.5,32.28-27.5H278.2l36.58,35.9V225h-28v27H207.06c-2.41-15-16-27.67-32.28-27.67S144.9,237,142.49,252H65a33.13,33.13,0,0,0-32.28-27.46A32.64,32.64,0,1,0,65,262h77.54a32.34,32.34,0,0,0,26.28,27.13V299a35,35,0,0,0,35,35h84a25,25,0,0,1,25,25v3h-10l15,25.91,15-25.91h-10v-3a35,35,0,0,0-35-35h-84a25,25,0,0,1-25-25v-9.58A32.35,32.35,0,0,0,207.06,262h79.72v28h65V225h-27V159.9l35.9-35.9h71.1v27h28v74.13A32.57,32.57,0,1,0,497.06,262h49.72v10.38Zm-540,22.67a22.67,22.67,0,1,1,22.67-22.67A22.69,22.69,0,0,1,32.67,280.08Zm142.1,0a22.67,22.67,0,1,1,22.67-22.67A22.69,22.69,0,0,1,174.77,280.08ZM242.77,10h155V41h-155V10Zm-68,131.33a22.67,22.67,0,1,1,22.67-22.67A22.69,22.69,0,0,1,174.77,141.33Zm167,93.67v45h-45V235h45Zm-22.34-84.24-32.09-32.09,32.09-32.09,32.09,32.09ZM431.77,114h-71.1L319.43,72.77,278.2,114H207.06a33.13,33.13,0,0,0-27.28-27.62V55.27A25.63,25.63,0,0,1,205.08,30h27.69V51h175V30h27.06a25.14,25.14,0,0,1,24.94,25.27V86h-28v28Zm10,27V96h46v45h-46Zm23,139.08a22.67,22.67,0,1,1,22.67-22.67A22.69,22.69,0,0,1,464.77,280.08Z"/></svg>